<?xml version="1.0" encoding="utf-8"?>
<!-- Generator: Adobe Illustrator 21.0.0, SVG Export Plug-In . SVG Version: 6.00 Build 0)  -->
<svg version="1.1" id="Слой_1" xmlns="http://www.w3.org/2000/svg" xmlns:xlink="http://www.w3.org/1999/xlink" x="0px" y="0px"
	 viewBox="0 0 156 57.5" style="enable-background:new 0 0 156 57.5;" xml:space="preserve">
<g>
	<path d="M101.2,28.8c0-6.7,4.1-9.6,13.7-9.6c9.6,0,13.7,2.9,13.7,9.6c0,6.7-4.1,9.6-13.7,9.6C105.3,38.4,101.2,35.5,101.2,28.8z
		 M114.9,35c6.9,0,10.6-1.7,10.6-6.2c0-4.4-3.7-6.2-10.6-6.2s-10.6,1.7-10.6,6.2C104.2,33.2,108,35,114.9,35z"/>
	<g>
		<polygon points="95.6,21.7 95.6,19.2 91.5,19.2 91.5,23.1 		"/>
		<polygon points="95.6,38 95.6,24.5 91.5,25.8 91.5,38 		"/>
	</g>
	<path d="M27.5,28.8c0-6.7,4.1-9.6,13.7-9.6c9.6,0,13.7,2.9,13.7,9.6c0,6.7-4.1,9.6-13.7,9.6C31.6,38.4,27.5,35.5,27.5,28.8z
		 M41.2,35c6.9,0,10.6-1.7,10.6-6.2c0-4.4-3.7-6.2-10.6-6.2s-10.6,1.7-10.6,6.2C30.6,33.2,34.3,35,41.2,35z"/>
	<path d="M82,27.8c-1.8-1.1-4.2-1.1-6.3-1.2c-1,0-2.1-0.1-3.2-0.1c-0.7,0-1.3,0-1.9,0h-0.4c-0.3,0-0.6,0-1.1,0c-2,0-5.1-0.2-5.5-1.8
		c-0.4-1.6,3.1-2.1,6.9-2.1c3.5,0,7.4,0.4,8.6,0.8c1,0.3,1.7,0.8,2,1.3l4-1.3c-0.5-0.8-1.2-1.7-2.2-2.4c-2.3-1.5-7.5-1.9-11.2-1.9
		c-3.9,0-10.4,0.3-11.6,4.7c-0.2,1.1-0.2,2.3,0.3,3.3c1,2.1,3.8,2.8,5.9,2.9c1.4,0.1,2.8,0.1,4.3,0.1c1.6,0,3.2-0.1,4.8-0.1
		c0.4,0,0.8,0,1.2,0c2.9,0.1,5.4,1.1,4.6,2.9c-0.5,1.4-4,1.8-7.5,1.8c-3.3,0-6.6-0.4-7.8-0.8c-1.4-0.5-2.2-1.3-2.3-1.7l-4,1.3h0
		c0.5,0.9,1.2,2.1,2.5,2.9c2.3,1.5,7.5,1.9,11.2,1.9c3.9,0,10.4-0.3,11.6-4.7c0.3-1.1,0.2-2.5-0.5-3.6C83.9,29.2,83,28.4,82,27.8z"
		/>
</g>
</svg>
