<svg width="1000" height="1000" viewBox="0 0 1000 1000" fill="none" xmlns="http://www.w3.org/2000/svg">
<rect width="1000" height="1000" fill="#DDDDDD75"/>
<path fill-rule="evenodd" clip-rule="evenodd" d="M500 468C517.673 468 532 482.327 532 500C532 517.673 517.673 532 500 532C482.327 532 468 517.673 468 500C468 482.327 482.327 468 500 468ZM507.559 513.605C505.135 513.862 502.604 514 500 514C497.396 514 494.864 513.862 492.44 513.605C493.041 516.253 493.805 518.619 494.682 520.623C495.783 523.141 496.966 524.866 498.026 525.891C499.062 526.892 499.721 527 500 527C500.279 527 500.938 526.892 501.974 525.891C503.034 524.866 504.217 523.141 505.318 520.623C506.195 518.619 506.958 516.253 507.559 513.605ZM474.318 508.353C476.981 516.545 483.455 523.018 491.647 525.681C489.707 522.378 488.153 517.954 487.171 512.828C482.045 511.846 477.621 510.293 474.318 508.353ZM525.681 508.352C522.378 510.292 517.954 511.846 512.828 512.828C511.846 517.954 510.293 522.378 508.353 525.681C516.546 523.018 523.018 516.545 525.681 508.352ZM500 491C497.028 491 494.187 491.19 491.534 491.534C491.19 494.187 491 497.028 491 500C491 502.972 491.19 505.812 491.534 508.465C494.187 508.809 497.028 509 500 509C502.972 509 505.812 508.809 508.465 508.465C508.809 505.812 509 502.972 509 500C509 497.028 508.809 494.187 508.465 491.534C505.812 491.19 502.972 491 500 491ZM486.394 492.44C483.746 493.041 481.381 493.805 479.377 494.682C476.859 495.783 475.134 496.966 474.109 498.026C473.108 499.062 473 499.721 473 500C473 500.279 473.108 500.938 474.109 501.974C475.134 503.034 476.859 504.217 479.377 505.318C481.381 506.195 483.746 506.958 486.394 507.559C486.137 505.135 486 502.604 486 500L486.005 499.174C486.031 496.86 486.164 494.607 486.394 492.44ZM513.605 492.44C513.862 494.864 514 497.396 514 500C514 502.604 513.862 505.135 513.605 507.559C516.253 506.958 518.619 506.195 520.623 505.318C523.141 504.217 524.866 503.034 525.891 501.974C526.767 501.067 526.959 500.449 526.993 500.122L527 500L526.993 499.878C526.959 499.551 526.767 498.933 525.891 498.026C524.866 496.966 523.141 495.783 520.623 494.682C518.619 493.805 516.253 493.041 513.605 492.44ZM491.646 474.318C483.454 476.981 476.981 483.455 474.318 491.647C477.621 489.707 482.045 488.153 487.171 487.171C488.153 482.045 489.706 477.621 491.646 474.318ZM508.352 474.318C510.292 477.621 511.846 482.045 512.828 487.171C517.954 488.153 522.378 489.706 525.681 491.646C523.018 483.454 516.545 476.981 508.352 474.318ZM500 473C499.721 473 499.062 473.108 498.026 474.109C496.966 475.134 495.783 476.859 494.682 479.377C493.805 481.381 493.041 483.746 492.44 486.394C494.864 486.137 497.396 486 500 486L500.826 486.005C503.14 486.031 505.392 486.164 507.559 486.394C506.958 483.746 506.195 481.381 505.318 479.377C504.217 476.859 503.034 475.134 501.974 474.109C500.938 473.108 500.279 473 500 473Z" fill="#A6A6A6"/>
</svg>